<svg width="108" height="119" viewBox="0 0 108 119" fill="none" xmlns="http://www.w3.org/2000/svg">
<path d="M34.5 48.8809C44.9877 37.0327 50.1717 29.6482 55.6939 17.8608C56.9273 15.228 57.9386 12.4758 58.4151 9.60777C59.1013 5.47733 58.6835 3.26034 56.9159 2.41213C53.6324 0.83657 49.8556 3.30015 46.7214 5.15486C19.5387 21.2404 15.2011 29.5072 16.2265 38.0782C16.6964 42.0061 18.3641 45.6731 20.0821 49.2364L27.1935 63.986M27.1935 63.986L36.2123 82.6916M27.1935 63.986L23.717 66.2795C19.5904 69.0019 15.8416 72.2575 12.5679 75.962C3.64654 86.0572 -2.94496 102.087 7.65488 110.402C8.54503 111.101 9.51884 111.77 10.5855 112.418C18.1646 117.02 28.1713 118.337 36.1054 114.379C37.5732 113.646 38.6705 112.668 39.6958 111.104C42.4781 106.861 42.866 101.726 41.8673 96.7179M27.1935 63.986L47.8162 50.3809C37.6096 58.4611 55.617 76.6694 63.0734 60.703M36.2123 82.6916L39.1897 88.867C40.3815 91.3388 41.3272 94.0096 41.8673 96.7179M36.2123 82.6916C30.4569 87.1412 33.112 93.2528 39.3793 95.9661C40.2227 96.3312 41.053 96.5781 41.8673 96.7179M36.2123 82.6916C36.9857 82.0936 37.911 81.5256 38.9999 81L60.8542 70.2677M63.0734 60.703C64.3835 57.8976 65.3679 54.037 65.8163 48.8809L63.0734 60.703ZM63.0734 60.703L60.8542 70.2677M90.8084 50.9095C89.9548 52.6525 89.0807 54.4243 88.1976 56.2296C88.0587 56.5134 87.9095 56.7901 87.7504 57.0593M90.8084 50.9095C90.8986 50.7251 90.9887 50.5411 91.0785 50.3574M90.8084 50.9095C90.8886 50.9425 90.9683 50.9759 91.0474 51.0097M90.8084 50.9095C82.2071 47.3673 67.1388 48.0698 69.0904 56.9435C69.3568 58.155 70.1529 59.2629 71.3178 60.4447C72.6045 61.75 74.3131 62.5064 76.1178 62.772M91.0785 50.3574C98.9618 34.2303 104.963 20.5468 99.7769 5.58714C99.4488 4.64092 98.1348 4.77322 97.9686 5.76082C96.0172 17.3596 91.7917 36.4825 91.0785 50.3574ZM91.0785 50.3574C91.0672 50.5762 91.0568 50.7936 91.0474 51.0097M91.0474 51.0097C90.9788 52.573 90.9571 54.0654 90.9909 55.468M91.0474 51.0097C91.1707 51.0624 91.2925 51.1159 91.4129 51.1703L94.216 52.4375C94.8274 52.7139 94.8412 53.5772 94.2389 53.8729L90.9909 55.468M90.9909 55.468C91.2547 66.4147 94.8971 71.8889 106 62.8809M90.9909 55.468L87.7504 57.0593M60.8542 70.2677L76.1178 62.772M60.8542 70.2677L58.6302 79.8534C56.5535 88.8039 50.0086 98.1153 41.8673 96.7179M76.1178 62.772L87.7504 57.0593M76.1178 62.772C76.614 62.845 77.1176 62.8809 77.6216 62.8809C81.8085 62.8809 85.6424 60.6274 87.7504 57.0593" stroke="black" stroke-width="3" stroke-linecap="round" stroke-linejoin="round"/>
</svg>
